<?xml version="1.0" encoding="UTF-8"?>
<svg id="Layer_1" data-name="Layer 1" xmlns="http://www.w3.org/2000/svg" viewBox="0 0 110.05 68.18">
  <defs>
    <style>
      .cls-1 {
        fill: #fff;
      }
    </style>
  </defs>
  <path class="cls-1" d="M30.97,37.3h-10.65c-.19-1.22.59-1.45,1.41-1.96,2.73-1.7,14.35-4.44,17.05-3.18s-2.14,3.16-2.39,3.46c-.38.46-1.52,4.36-1.7,5.21-1.75,8.18-.83,17.44.22,25.67l-2.7,1.67c-1.36,0-2.14-4.44-2.29-5.52-.64-4.56.12-9.75.35-14.36-6.07,4.86-12.43,12.16-21.02,11.25-3.72-.39-8.67-2.65-9.15-6.82C-1.16,42.09,11.67,16.49,23.03,14.28c1.84-.36,5.7-.46,5.42,2.21-.29.92-8.67,3.09-10.38,4.19-3.84,2.47-10.76,15.44-12.31,19.98-1.25,3.67-4.14,11.94.88,13.68,10.91,3.78,20.54-8.31,24.34-17.05Z"/>
  <path class="cls-1" d="M87.18,42.01c-1.04,2.47-.76,4.92-.82,7.52-.01.6-.37,1.21-.37,1.79,0,4.58,2.15,6.35,6.69,5.24,2.79-.68,6.4-4.15,8.22-6.33,1.37-1.64,5.17-8.39,6.92-8.53,3.7-.3,1.9,3.49.84,5.28-2.55,4.3-11.55,12.5-16.53,13.28-9.49,1.5-9.66-7.96-9.33-14.81-1.49.62-5.21.47-4.48-1.79.16-.48,2.46-2.59,3.13-3.64,3.04-4.8,3.83-11.9,8.64-15.49,4.19-3.13,10.09-2.07,13.14,2.11s-.32,5.96-3.55,8.18c-3.95,2.71-8.49,4.59-12.51,7.19ZM88.14,36.59c.99,1.02,10.35-4.59,11.17-6.39,1.07-2.33-1.7-3.48-3.59-3.52-3.04-.07-7.82,6.92-7.59,9.91Z"/>
  <path class="cls-1" d="M57.86,21.42c4.33-.8,7.31,3.93,8.68,7.48,3.03,7.86,1.77,25.87-6.7,30.34-4.12,2.17-7.02,1.37-7.77-3.47-1.46-9.46-.67-22.49,2.51-31.59.52-1.48,1.72-2.47,3.27-2.76ZM56.22,55.71c1.98.45,3.48-.81,4.52-2.33,3.29-4.81,4.39-17.63,3.1-23.2-1.14-4.93-5.4-5.28-7.11-.68s-1.68,17.44-1.26,22.54c.1,1.27.55,2.43.76,3.68Z"/>
  <path class="cls-1" d="M71.71.12c1.29-.29,2.21-.15,2.5,1.24,1.65,19.05,2.62,38.16,2.41,57.24-6.43,1.9-3.85-5.08-3.74-8.7.5-16.1-.18-32.76-2.48-48.65,0-.67.72-1,1.3-1.13Z"/>
  <path class="cls-1" d="M46.95,60.18c-.74.92-2.34,1.23-3.2.36-.69-.7-.28-7.94-.33-9.6-.25-7.87-1.11-15.84-.74-23.77.11-2.32.62-4.91.73-7.25,1.29-.06,2.62-.17,3.55.88v39.38Z"/>
  <path class="cls-1" d="M43.31,7.91c2.9-.51,3.71,4.12.84,4.39-2.11.2-3.39-3.94-.84-4.39Z"/>
</svg>